# xmcd CD database file
#
# Track frame offsets:
#	150
#	22952
#	46377
#
# Disc length: 918 seconds
#
# Revision: 0
# Processed by: cddbd v1.5PL3 Copyright (c) Steve Scherf et al.
# Submitted via: CDex 1.50beta9
#
DISCID=1a039403
DTITLE=ZARD - 運命のルーレット廻して
DYEAR=1900
DGENRE=J-POP
TTITLE0=運命のルーレット廻して
TTITLE1=少女の頃にもどったみたいに
TTITLE2=運命のルーレット廻して(Original Karaoke)
EXTD=
EXTT0=
EXTT1=
EXTT2=
PLAYORDER=
